<svg width="80" height="80" viewBox="0 0 300 200" fill="none" xmlns="http://www.w3.org/2000/svg">
  <path
    d="M212.887 113.808H164.713L159.642 118.911H134.287L129.216 113.808H81.0425V65.3323H129.216L134.287 70.435H159.642L164.713 65.3323H212.887V113.808Z"
    fill="#0045C7" />
  <path d="M81.0425 70.4349H126.681L131.752 75.5376H167.248L172.319 70.4349H212.887V62.7808H81.0425V70.4349Z"
    fill="#002E6E" />
  <path d="M116.539 24.5103H177.39V34.7157H116.539V24.5103Z" fill="#0045C7" />
  <path
    d="M119.074 44.9212H108.933V27.6995C108.933 26.8536 109.267 26.0424 109.861 25.4444C110.455 24.8463 111.261 24.5103 112.102 24.5103H119.074V44.9212Z"
    fill="#002E6E" />
  <path
    d="M184.996 44.9212H174.855V24.5103H181.618C182.452 24.5102 183.252 24.8409 183.846 25.4306C184.439 26.0203 184.777 26.8215 184.788 27.6606L184.996 44.9212Z"
    fill="#002E6E" />
  <path d="M215.422 65.3321H164.713L159.642 70.4348H134.287L129.216 65.3321H78.5071V44.9211H215.422V65.3321Z"
    fill="#007AF6" />
  <path
    d="M111.468 55.9973C114.21 56.9724 116.617 58.7179 118.403 61.0271C120.19 63.3362 121.281 66.1122 121.548 69.0263C121.815 71.9404 121.246 74.8703 119.909 77.469C118.572 80.0678 116.522 82.2264 114.004 83.6892V113.808H98.7908V83.6892C96.272 82.2264 94.2227 80.0678 92.8856 77.469C91.5485 74.8703 90.9797 71.9404 91.2465 69.0263C91.5133 66.1122 92.6046 63.3362 94.391 61.0271C96.1775 58.7179 98.5843 56.9724 101.326 55.9973V67.8835C101.326 69.2368 101.86 70.5347 102.811 71.4917C103.762 72.4486 105.052 72.9862 106.397 72.9862C107.742 72.9862 109.032 72.4486 109.983 71.4917C110.934 70.5347 111.468 69.2368 111.468 67.8835V55.9973Z"
    fill="#C1E3F7" />
  <path
    d="M106.397 116.36C105.725 116.36 105.08 116.091 104.604 115.612C104.129 115.134 103.862 114.485 103.862 113.808V88.2945C103.862 87.6179 104.129 86.9689 104.604 86.4904C105.08 86.012 105.725 85.7432 106.397 85.7432C107.07 85.7432 107.715 86.012 108.19 86.4904C108.665 86.9689 108.933 87.6179 108.933 88.2945V113.808C108.933 114.485 108.665 115.134 108.19 115.612C107.715 116.091 107.07 116.36 106.397 116.36Z"
    fill="#AFCEE0" />
  <path d="M154.571 118.911H139.358V108.705L136.823 103.603V95.9485H157.106V103.603L154.571 108.705V118.911Z"
    fill="#007AF6" />
  <path d="M152.035 95.9486H141.894V62.7808L146.965 55.1267L152.035 62.7808V95.9486Z" fill="#AFCEE0" />
  <path
    d="M200.209 55.1267H207.816C211.178 55.1267 214.402 56.4707 216.78 58.8631C219.157 61.2555 220.493 64.5002 220.493 67.8836H200.209V55.1267Z"
    fill="#C1E3F7" />
  <path
    d="M197.674 111.257H182.461V101.051C184.128 97.6956 184.996 93.9953 184.996 90.2434V80.6404H195.138V90.2434C195.138 93.9953 196.006 97.6956 197.674 101.051V111.257Z"
    fill="#C36F53" />
  <path
    d="M177.39 55.1267V72.9863L180.186 73.9239C181.587 74.3939 182.805 75.2954 183.668 76.5008C184.532 77.7063 184.996 79.1545 184.996 80.6404H195.138V79.9133C195.138 78.5985 195.502 77.3096 196.189 76.1912C196.876 75.0727 197.859 74.1688 199.027 73.5808L200.209 72.9863V55.1267H177.39Z"
    fill="#AFCEE0" />
  <path d="M182.461 103.603H197.674V113.808H182.461V103.603Z" fill="#F48B68" />
  <path
    d="M146.965 106.154H136.823C136.15 106.154 135.505 105.885 135.03 105.407C134.554 104.928 134.287 104.279 134.287 103.603C134.287 102.926 134.554 102.277 135.03 101.799C135.505 101.32 136.15 101.051 136.823 101.051H146.965C147.637 101.051 148.282 101.32 148.757 101.799C149.233 102.277 149.5 102.926 149.5 103.603C149.5 104.279 149.233 104.928 148.757 105.407C148.282 105.885 147.637 106.154 146.965 106.154Z"
    fill="#3191FF" />
  <path d="M88.6489 44.9211H205.28V55.1266H88.6489V44.9211Z" fill="#3A97FF" />
  <path d="M215.422 172.49H78.5071V113.808H129.216L134.287 118.911H159.642L164.713 113.808H215.422V172.49Z"
    fill="#007AF6" />
  <path d="M205.28 162.284H88.6489V124.014H124.145L129.216 129.116H162.177L167.248 124.014H205.28V162.284Z"
    fill="#3A97FF" />
  <path
    d="M146.965 146.976C149.765 146.976 152.035 144.691 152.035 141.873C152.035 139.055 149.765 136.771 146.965 136.771C144.164 136.771 141.894 139.055 141.894 141.873C141.894 144.691 144.164 146.976 146.965 146.976Z"
    fill="#0045C7" />
  <path d="M144.429 141.873H149.5V152.079H144.429V141.873Z" fill="#0045C7" />
  <path d="M174.855 149.527H187.532V154.63H174.855V149.527Z" fill="#5FB0FF" />
  <path d="M192.603 149.527H197.674V154.63H192.603V149.527Z" fill="#5FB0FF" />
  <path d="M164.713 52.5754H177.39V75.5378H164.713V52.5754Z" fill="#C1E3F7" />
  <path d="M139.358 113.808H154.571V118.911H139.358V113.808Z" fill="#0072E6" />
  <path d="M141.894 62.7808H152.035L146.965 55.1267L141.894 62.7808Z" fill="#C6E9FD" />
  <path d="M164.713 52.5754H169.784V75.5378H164.713V52.5754Z" fill="#C6E9FD" />
</svg>
