<svg width="446" height="350" viewBox="0 0 446 350" fill="none" xmlns="http://www.w3.org/2000/svg">
<path fill-rule="evenodd" clip-rule="evenodd" d="M127.503 22.7544C127.503 14.0459 134.664 6.9863 143.881 6.9863L282.29 2.38317L298.499 10.3253C307.723 14.9225 310.808 19.9342 310.808 28.9175V108.255H277.432V31.6179L165.26 37.0232C162.807 37.1414 160.878 39.1648 160.878 41.621V108.255H127.503V22.7544Z" fill="#ABABAB"/>
<path fill-rule="evenodd" clip-rule="evenodd" d="M121.874 32.3032C121.874 17.0498 134.24 4.68442 149.493 4.68442L271.225 0.0812988C286.479 0.0812988 298.844 12.4466 298.844 27.7V108.255H266.622V41.8937C266.622 36.6616 262.268 32.4813 257.04 32.6952L162.926 36.5451C157.992 36.7469 154.096 40.8055 154.096 45.7436V108.255H121.874V32.3032Z" fill="#DADADA"/>
<path d="M26.2343 134.291C26.2343 113.556 43.0432 96.7468 63.778 96.7468C63.778 96.7468 368.36 84.0793 389.094 84.0793L430.07 98.2436C442.817 102.558 442.817 114.131 442.817 134.291L445.083 303.494C445.083 303.494 445.083 315.89 431.812 325.08L399.087 345.315L63.778 338.411C43.0432 338.411 26.2343 321.602 26.2343 300.867V134.291Z" fill="url(#paint0_linear_2698_2016)"/>
<path d="M0.917114 128.164C0.917114 108.143 16.9125 91.7903 36.9285 91.3479L379.861 83.7693C400.513 83.3129 417.5 99.9289 417.5 120.585V312.271C417.5 332.927 400.513 349.543 379.861 349.087L36.9285 341.508C16.9125 341.066 0.917114 324.713 0.917114 304.692V128.164Z" fill="url(#paint1_linear_2698_2016)"/>
<g filter="url(#filter0_i_2698_2016)">
<path d="M88.1632 169.28L118.967 227.046L88.1633 260.115L57.359 227.046L88.1632 169.28ZM88.1633 242.596L104.368 224.913L88.1633 194.605L72.1041 224.913L88.1633 242.596Z" fill="#383E4D"/>
</g>
<g filter="url(#filter1_i_2698_2016)">
<path d="M155.546 239.551H150.718C149.875 239.551 149.453 239.148 149.453 238.344V209.544C149.453 209.122 149.242 208.911 148.821 208.911H142.267C141.463 208.911 141.06 208.509 141.06 207.704V203.795C141.06 202.991 141.463 202.588 142.267 202.588H163.997C164.801 202.588 165.204 202.991 165.204 203.795V207.704C165.204 208.509 164.801 208.911 163.997 208.911H157.443C156.984 208.911 156.754 209.122 156.754 209.544V238.344C156.754 239.148 156.351 239.551 155.546 239.551ZM179.653 233.227H183.735C184.961 233.227 185.823 232.978 186.321 232.48C186.858 231.944 187.126 231.062 187.126 229.836V212.303C187.126 211.077 186.858 210.214 186.321 209.716C185.823 209.18 184.961 208.911 183.735 208.911H179.653C178.427 208.911 177.565 209.18 177.066 209.716C176.568 210.214 176.319 211.077 176.319 212.303V229.836C176.319 231.062 176.568 231.944 177.066 232.48C177.565 232.978 178.427 233.227 179.653 233.227ZM184.942 239.551H178.503C175.476 239.551 173.138 238.746 171.49 237.136C169.842 235.527 169.018 233.208 169.018 230.181V211.958C169.018 208.931 169.842 206.612 171.49 205.003C173.138 203.393 175.476 202.588 178.503 202.588H184.942C187.969 202.588 190.307 203.393 191.955 205.003C193.603 206.612 194.427 208.931 194.427 211.958V230.181C194.427 233.208 193.603 235.527 191.955 237.136C190.307 238.746 187.969 239.551 184.942 239.551ZM211.371 233.227H215.452C216.678 233.227 217.541 232.978 218.039 232.48C218.575 231.944 218.844 231.062 218.844 229.836V212.303C218.844 211.077 218.575 210.214 218.039 209.716C217.541 209.18 216.678 208.911 215.452 208.911H211.371C210.144 208.911 209.282 209.18 208.784 209.716C208.286 210.214 208.037 211.077 208.037 212.303V229.836C208.037 231.062 208.286 231.944 208.784 232.48C209.282 232.978 210.144 233.227 211.371 233.227ZM216.659 239.551H210.221C207.193 239.551 204.856 238.746 203.208 237.136C201.56 235.527 200.736 233.208 200.736 230.181V211.958C200.736 208.931 201.56 206.612 203.208 205.003C204.856 203.393 207.193 202.588 210.221 202.588H216.659C219.687 202.588 222.025 203.393 223.672 205.003C225.32 206.612 226.144 208.931 226.144 211.958V230.181C226.144 233.208 225.32 235.527 223.672 237.136C222.025 238.746 219.687 239.551 216.659 239.551ZM253.148 239.551H234.236C233.431 239.551 233.029 239.148 233.029 238.344V203.795C233.029 202.991 233.431 202.588 234.236 202.588H239.122C239.927 202.588 240.329 202.991 240.329 203.795V232.538C240.329 232.959 240.559 233.17 241.019 233.17H253.148C253.915 233.17 254.298 233.592 254.298 234.435V238.344C254.298 239.148 253.915 239.551 253.148 239.551ZM266.785 233.457H273.223C274.487 233.457 275.388 233.208 275.925 232.71C276.499 232.174 276.787 231.311 276.787 230.123V226.789C276.787 225.601 276.499 224.758 275.925 224.26C275.35 223.762 274.411 223.513 273.108 223.513H266.785C266.363 223.513 266.152 223.723 266.152 224.145V232.825C266.152 233.247 266.363 233.457 266.785 233.457ZM266.785 217.592H272.648C273.874 217.592 274.775 217.343 275.35 216.844C275.925 216.308 276.212 215.446 276.212 214.258V212.016C276.212 210.828 275.925 209.985 275.35 209.486C274.813 208.95 273.932 208.682 272.705 208.682H266.785C266.363 208.682 266.152 208.892 266.152 209.314V216.959C266.152 217.381 266.363 217.592 266.785 217.592ZM258.852 238.344V203.795C258.852 202.991 259.254 202.588 260.059 202.588H273.855C276.883 202.588 279.22 203.393 280.868 205.003C282.516 206.612 283.34 208.911 283.34 211.901V214.258C283.34 217.515 281.826 219.623 278.799 220.581C280.332 220.811 281.558 221.443 282.478 222.478C283.398 223.474 283.857 224.911 283.857 226.789V230.238C283.857 233.227 283.034 235.527 281.386 237.136C279.738 238.746 277.419 239.551 274.43 239.551H260.059C259.254 239.551 258.852 239.148 258.852 238.344ZM300.798 233.227H304.879C306.105 233.227 306.968 232.978 307.466 232.48C308.002 231.944 308.271 231.062 308.271 229.836V212.303C308.271 211.077 308.002 210.214 307.466 209.716C306.968 209.18 306.105 208.911 304.879 208.911H300.798C299.571 208.911 298.709 209.18 298.211 209.716C297.712 210.214 297.463 211.077 297.463 212.303V229.836C297.463 231.062 297.712 231.944 298.211 232.48C298.709 232.978 299.571 233.227 300.798 233.227ZM306.086 239.551H299.648C296.62 239.551 294.283 238.746 292.635 237.136C290.987 235.527 290.163 233.208 290.163 230.181V211.958C290.163 208.931 290.987 206.612 292.635 205.003C294.283 203.393 296.62 202.588 299.648 202.588H306.086C309.114 202.588 311.451 203.393 313.099 205.003C314.747 206.612 315.571 208.931 315.571 211.958V230.181C315.571 233.208 314.747 235.527 313.099 237.136C311.451 238.746 309.114 239.551 306.086 239.551ZM326.652 239.551H320.961C320.577 239.551 320.309 239.436 320.156 239.206C320.003 238.938 320.003 238.631 320.156 238.286L329.066 220.638L320.443 203.853C320.29 203.546 320.29 203.259 320.443 202.991C320.597 202.722 320.865 202.588 321.248 202.588H326.767C327.725 202.588 328.357 202.991 328.664 203.795L334.125 216.155H334.355L339.758 203.795C340.141 202.991 340.755 202.588 341.598 202.588H347.231C347.614 202.588 347.883 202.741 348.036 203.048C348.228 203.316 348.247 203.604 348.093 203.91L339.356 220.638L348.266 238.229C348.457 238.612 348.477 238.938 348.323 239.206C348.17 239.436 347.883 239.551 347.461 239.551H341.713C340.908 239.551 340.352 239.168 340.046 238.401L334.355 225.984H334.125L328.376 238.401C328.031 239.168 327.456 239.551 326.652 239.551Z" fill="#383E4D"/>
</g>
<defs>
<filter id="filter0_i_2698_2016" x="57.359" y="169.28" width="63.9098" height="90.8347" filterUnits="userSpaceOnUse" color-interpolation-filters="sRGB">
<feFlood flood-opacity="0" result="BackgroundImageFix"/>
<feBlend mode="normal" in="SourceGraphic" in2="BackgroundImageFix" result="shape"/>
<feColorMatrix in="SourceAlpha" type="matrix" values="0 0 0 0 0 0 0 0 0 0 0 0 0 0 0 0 0 0 127 0" result="hardAlpha"/>
<feOffset dx="2.30156"/>
<feGaussianBlur stdDeviation="2.30156"/>
<feComposite in2="hardAlpha" operator="arithmetic" k2="-1" k3="1"/>
<feColorMatrix type="matrix" values="0 0 0 0 0 0 0 0 0 0 0 0 0 0 0 0 0 0 0.25 0"/>
<feBlend mode="normal" in2="shape" result="effect1_innerShadow_2698_2016"/>
</filter>
<filter id="filter1_i_2698_2016" x="141.06" y="202.588" width="209.795" height="36.9626" filterUnits="userSpaceOnUse" color-interpolation-filters="sRGB">
<feFlood flood-opacity="0" result="BackgroundImageFix"/>
<feBlend mode="normal" in="SourceGraphic" in2="BackgroundImageFix" result="shape"/>
<feColorMatrix in="SourceAlpha" type="matrix" values="0 0 0 0 0 0 0 0 0 0 0 0 0 0 0 0 0 0 127 0" result="hardAlpha"/>
<feOffset dx="2.30156"/>
<feGaussianBlur stdDeviation="1.15078"/>
<feComposite in2="hardAlpha" operator="arithmetic" k2="-1" k3="1"/>
<feColorMatrix type="matrix" values="0 0 0 0 0 0 0 0 0 0 0 0 0 0 0 0 0 0 0.33 0"/>
<feBlend mode="normal" in2="shape" result="effect1_innerShadow_2698_2016"/>
</filter>
<linearGradient id="paint0_linear_2698_2016" x1="234.526" y1="96.7469" x2="234.526" y2="338.411" gradientUnits="userSpaceOnUse">
<stop stop-color="#E17914"/>
<stop offset="1" stop-color="#A84700"/>
</linearGradient>
<linearGradient id="paint1_linear_2698_2016" x1="42.8252" y1="129.227" x2="386.953" y2="310.014" gradientUnits="userSpaceOnUse">
<stop stop-color="#F7B55D"/>
<stop offset="1" stop-color="#FF8845"/>
</linearGradient>
</defs>
</svg>
