<svg width="300" height="300" viewBox="0 0 300 300" fill="none" xmlns="http://www.w3.org/2000/svg">
<path fill-rule="evenodd" clip-rule="evenodd" d="M108.508 83.8512C108.508 80.0674 111.619 77.0001 115.624 77.0001L175.761 75.0001L182.804 78.4509C186.811 80.4483 188.151 82.6258 188.151 86.5289V121H173.65V87.7023L124.913 90.0508C123.847 90.1021 123.009 90.9813 123.009 92.0485V121H108.508V83.8512Z" fill="#ABABAB"/>
<path fill-rule="evenodd" clip-rule="evenodd" d="M106.062 88C106.062 81.3726 111.435 76 118.062 76L170.953 74C177.581 74 182.953 79.3726 182.953 86V121H168.953V92.167C168.953 89.8937 167.061 88.0774 164.79 88.1703L123.899 89.8431C121.755 89.9308 120.062 91.6942 120.062 93.8397V121H106.062V88Z" fill="#DADADA"/>
<path d="M64.5078 132.312C64.5078 123.303 71.811 116 80.82 116C80.82 116 213.157 110.496 222.166 110.496L239.969 116.65C245.508 118.525 245.508 123.553 245.508 132.312L246.492 205.829C246.492 205.829 246.492 211.215 240.726 215.208L226.508 224L80.82 221C71.811 221 64.5078 213.697 64.5078 204.688V132.312Z" fill="url(#paint0_linear_1201_2207)"/>
<path d="M53.5078 129.65C53.5078 120.952 60.4576 113.846 69.1542 113.654L218.154 110.361C227.127 110.163 234.508 117.383 234.508 126.357V209.643C234.508 218.617 227.127 225.837 218.154 225.639L69.1542 222.346C60.4575 222.154 53.5078 215.048 53.5078 206.35V129.65Z" fill="url(#paint1_linear_1201_2207)"/>
<g filter="url(#filter0_i_1201_2207)">
<path d="M91.4151 147.515L104.799 172.613L91.4151 186.981L78.031 172.613L91.4151 147.515ZM91.4151 179.37L98.456 171.687L91.4151 158.518L84.4376 171.687L91.4151 179.37Z" fill="#383E4D"/>
</g>
<g filter="url(#filter1_i_1201_2207)">
<path d="M120.571 178.019H118.473C118.107 178.019 117.924 177.844 117.924 177.494V164.981C117.924 164.798 117.832 164.706 117.649 164.706H114.802C114.452 164.706 114.277 164.531 114.277 164.182V162.483C114.277 162.134 114.452 161.959 114.802 161.959H124.243C124.592 161.959 124.767 162.134 124.767 162.483V164.182C124.767 164.531 124.592 164.706 124.243 164.706H121.395C121.195 164.706 121.096 164.798 121.096 164.981V177.494C121.096 177.844 120.921 178.019 120.571 178.019ZM131.045 175.271H132.818C133.351 175.271 133.726 175.163 133.942 174.947C134.176 174.713 134.292 174.331 134.292 173.798V166.18C134.292 165.647 134.176 165.272 133.942 165.056C133.726 164.823 133.351 164.706 132.818 164.706H131.045C130.512 164.706 130.138 164.823 129.921 165.056C129.705 165.272 129.597 165.647 129.597 166.18V173.798C129.597 174.331 129.705 174.713 129.921 174.947C130.138 175.163 130.512 175.271 131.045 175.271ZM133.343 178.019H130.546C129.23 178.019 128.214 177.669 127.499 176.97C126.783 176.27 126.425 175.263 126.425 173.948V166.03C126.425 164.715 126.783 163.707 127.499 163.008C128.214 162.309 129.23 161.959 130.546 161.959H133.343C134.658 161.959 135.674 162.309 136.39 163.008C137.106 163.707 137.464 164.715 137.464 166.03V173.948C137.464 175.263 137.106 176.27 136.39 176.97C135.674 177.669 134.658 178.019 133.343 178.019ZM144.826 175.271H146.599C147.132 175.271 147.507 175.163 147.723 174.947C147.956 174.713 148.073 174.331 148.073 173.798V166.18C148.073 165.647 147.956 165.272 147.723 165.056C147.507 164.823 147.132 164.706 146.599 164.706H144.826C144.293 164.706 143.919 164.823 143.702 165.056C143.486 165.272 143.377 165.647 143.377 166.18V173.798C143.377 174.331 143.486 174.713 143.702 174.947C143.919 175.163 144.293 175.271 144.826 175.271ZM147.124 178.019H144.327C143.011 178.019 141.995 177.669 141.279 176.97C140.563 176.27 140.205 175.263 140.205 173.948V166.03C140.205 164.715 140.563 163.707 141.279 163.008C141.995 162.309 143.011 161.959 144.327 161.959H147.124C148.439 161.959 149.455 162.309 150.171 163.008C150.887 163.707 151.245 164.715 151.245 166.03V173.948C151.245 175.263 150.887 176.27 150.171 176.97C149.455 177.669 148.439 178.019 147.124 178.019ZM162.978 178.019H154.761C154.411 178.019 154.236 177.844 154.236 177.494V162.483C154.236 162.134 154.411 161.959 154.761 161.959H156.884C157.233 161.959 157.408 162.134 157.408 162.483V174.972C157.408 175.155 157.508 175.246 157.708 175.246H162.978C163.311 175.246 163.477 175.429 163.477 175.796V177.494C163.477 177.844 163.311 178.019 162.978 178.019ZM168.903 175.371H171.7C172.25 175.371 172.641 175.263 172.874 175.046C173.124 174.813 173.249 174.439 173.249 173.923V172.474C173.249 171.958 173.124 171.591 172.874 171.375C172.624 171.159 172.216 171.05 171.65 171.05H168.903C168.72 171.05 168.628 171.142 168.628 171.325V175.096C168.628 175.28 168.72 175.371 168.903 175.371ZM168.903 168.478H171.45C171.983 168.478 172.374 168.369 172.624 168.153C172.874 167.92 172.999 167.545 172.999 167.029V166.055C172.999 165.539 172.874 165.173 172.624 164.956C172.391 164.723 172.008 164.606 171.475 164.606H168.903C168.72 164.606 168.628 164.698 168.628 164.881V168.203C168.628 168.386 168.72 168.478 168.903 168.478ZM165.456 177.494V162.483C165.456 162.134 165.631 161.959 165.98 161.959H171.975C173.29 161.959 174.306 162.309 175.022 163.008C175.738 163.707 176.096 164.706 176.096 166.005V167.029C176.096 168.444 175.438 169.36 174.123 169.776C174.789 169.876 175.322 170.151 175.721 170.601C176.121 171.034 176.321 171.658 176.321 172.474V173.973C176.321 175.271 175.963 176.27 175.247 176.97C174.531 177.669 173.523 178.019 172.225 178.019H165.98C165.631 178.019 165.456 177.844 165.456 177.494ZM183.681 175.271H185.454C185.987 175.271 186.362 175.163 186.578 174.947C186.811 174.713 186.928 174.331 186.928 173.798V166.18C186.928 165.647 186.811 165.272 186.578 165.056C186.362 164.823 185.987 164.706 185.454 164.706H183.681C183.148 164.706 182.773 164.823 182.557 165.056C182.34 165.272 182.232 165.647 182.232 166.18V173.798C182.232 174.331 182.34 174.713 182.557 174.947C182.773 175.163 183.148 175.271 183.681 175.271ZM185.979 178.019H183.181C181.866 178.019 180.85 177.669 180.134 176.97C179.418 176.27 179.06 175.263 179.06 173.948V166.03C179.06 164.715 179.418 163.707 180.134 163.008C180.85 162.309 181.866 161.959 183.181 161.959H185.979C187.294 161.959 188.31 162.309 189.026 163.008C189.742 163.707 190.1 164.715 190.1 166.03V173.948C190.1 175.263 189.742 176.27 189.026 176.97C188.31 177.669 187.294 178.019 185.979 178.019ZM194.914 178.019H192.442C192.275 178.019 192.158 177.969 192.092 177.869C192.025 177.752 192.025 177.619 192.092 177.469L195.963 169.801L192.217 162.508C192.15 162.375 192.15 162.25 192.217 162.134C192.283 162.017 192.4 161.959 192.566 161.959H194.964C195.38 161.959 195.655 162.134 195.788 162.483L198.161 167.853H198.261L200.609 162.483C200.775 162.134 201.042 161.959 201.408 161.959H203.856C204.022 161.959 204.139 162.025 204.205 162.159C204.289 162.275 204.297 162.4 204.23 162.533L200.434 169.801L204.305 177.444C204.389 177.611 204.397 177.752 204.33 177.869C204.264 177.969 204.139 178.019 203.956 178.019H201.458C201.108 178.019 200.867 177.852 200.734 177.519L198.261 172.124H198.161L195.663 177.519C195.514 177.852 195.264 178.019 194.914 178.019Z" fill="#383E4D"/>
</g>
<defs>
<filter id="filter0_i_1201_2207" x="78.031" y="147.515" width="27.768" height="39.4666" filterUnits="userSpaceOnUse" color-interpolation-filters="sRGB">
<feFlood flood-opacity="0" result="BackgroundImageFix"/>
<feBlend mode="normal" in="SourceGraphic" in2="BackgroundImageFix" result="shape"/>
<feColorMatrix in="SourceAlpha" type="matrix" values="0 0 0 0 0 0 0 0 0 0 0 0 0 0 0 0 0 0 127 0" result="hardAlpha"/>
<feOffset dx="1"/>
<feGaussianBlur stdDeviation="1"/>
<feComposite in2="hardAlpha" operator="arithmetic" k2="-1" k3="1"/>
<feColorMatrix type="matrix" values="0 0 0 0 0 0 0 0 0 0 0 0 0 0 0 0 0 0 0.25 0"/>
<feBlend mode="normal" in2="shape" result="effect1_innerShadow_1201_2207"/>
</filter>
<filter id="filter1_i_1201_2207" x="114.277" y="161.959" width="91.1531" height="16.0598" filterUnits="userSpaceOnUse" color-interpolation-filters="sRGB">
<feFlood flood-opacity="0" result="BackgroundImageFix"/>
<feBlend mode="normal" in="SourceGraphic" in2="BackgroundImageFix" result="shape"/>
<feColorMatrix in="SourceAlpha" type="matrix" values="0 0 0 0 0 0 0 0 0 0 0 0 0 0 0 0 0 0 127 0" result="hardAlpha"/>
<feOffset dx="1"/>
<feGaussianBlur stdDeviation="0.5"/>
<feComposite in2="hardAlpha" operator="arithmetic" k2="-1" k3="1"/>
<feColorMatrix type="matrix" values="0 0 0 0 0 0 0 0 0 0 0 0 0 0 0 0 0 0 0.33 0"/>
<feBlend mode="normal" in2="shape" result="effect1_innerShadow_1201_2207"/>
</filter>
<linearGradient id="paint0_linear_1201_2207" x1="155.008" y1="116" x2="155.008" y2="221" gradientUnits="userSpaceOnUse">
<stop stop-color="#E17914"/>
<stop offset="1" stop-color="#A84700"/>
</linearGradient>
<linearGradient id="paint1_linear_1201_2207" x1="71.7163" y1="130.112" x2="221.235" y2="208.662" gradientUnits="userSpaceOnUse">
<stop stop-color="#F7B55D"/>
<stop offset="1" stop-color="#FF8845"/>
</linearGradient>
</defs>
</svg>
