<svg width="300" height="300" viewBox="0 0 300 300" fill="none" xmlns="http://www.w3.org/2000/svg">
<path d="M66.9072 222H64.1022C63.6402 222 63.4092 221.769 63.4092 221.307V201.474C63.4092 201.012 63.6402 200.781 64.1022 200.781H74.6292C75.0692 200.781 75.2892 201.012 75.2892 201.474V203.718C75.2892 204.18 75.0692 204.411 74.6292 204.411H67.9962C67.7322 204.411 67.6002 204.532 67.6002 204.774V209.889C67.6002 210.153 67.7322 210.285 67.9962 210.285H73.6392C74.1012 210.285 74.3322 210.516 74.3322 210.978V213.189C74.3322 213.673 74.1012 213.915 73.6392 213.915H67.9962C67.7322 213.915 67.6002 214.036 67.6002 214.278V221.307C67.6002 221.769 67.3692 222 66.9072 222ZM84.0076 222H82.9186C81.2246 222 79.9376 221.538 79.0576 220.614C78.1996 219.69 77.7706 218.359 77.7706 216.621V205.863C77.7706 205.401 78.0016 205.17 78.4636 205.17H81.2686C81.7306 205.17 81.9616 205.401 81.9616 205.863V216.423C81.9616 217.127 82.1046 217.633 82.3906 217.941C82.6986 218.227 83.1936 218.37 83.8756 218.37H85.0966C86.6146 218.37 87.3736 217.534 87.3736 215.862V205.863C87.3736 205.401 87.6046 205.17 88.0666 205.17H90.8386C91.3226 205.17 91.5646 205.401 91.5646 205.863V221.307C91.5646 221.769 91.3226 222 90.8386 222H88.0666C87.6046 222 87.3736 221.769 87.3736 221.307V220.218H87.2416C86.9996 220.812 86.5706 221.263 85.9546 221.571C85.3386 221.857 84.6896 222 84.0076 222ZM98.872 222H96.067C95.605 222 95.374 221.769 95.374 221.307V199.494C95.374 199.032 95.605 198.801 96.067 198.801H98.872C99.334 198.801 99.565 199.032 99.565 199.494V221.307C99.565 221.769 99.334 222 98.872 222ZM107.025 222H104.22C103.758 222 103.527 221.769 103.527 221.307V199.494C103.527 199.032 103.758 198.801 104.22 198.801H107.025C107.487 198.801 107.718 199.032 107.718 199.494V221.307C107.718 221.769 107.487 222 107.025 222ZM117.885 222H111.615C111.175 222 110.955 221.769 110.955 221.307V219.195C110.955 218.953 110.999 218.788 111.087 218.7C111.175 218.59 111.351 218.535 111.615 218.535H117.126C118.204 218.535 118.743 218.205 118.743 217.545V217.38C118.743 216.852 118.292 216.346 117.39 215.862L114.123 214.047C113.001 213.475 112.176 212.859 111.648 212.199C111.12 211.539 110.856 210.692 110.856 209.658C110.856 208.118 111.263 206.985 112.077 206.259C112.891 205.533 114.167 205.17 115.905 205.17H121.416C121.856 205.17 122.076 205.401 122.076 205.863V208.008C122.076 208.25 122.032 208.426 121.944 208.536C121.856 208.624 121.68 208.668 121.416 208.668H116.829C115.751 208.668 115.212 208.943 115.212 209.493V209.658C115.212 210.142 115.685 210.637 116.631 211.143L119.964 213.123C121.108 213.739 121.911 214.377 122.373 215.037C122.835 215.675 123.066 216.522 123.066 217.578C123.066 220.526 121.339 222 117.885 222ZM126.348 208.8H125.028C124.764 208.8 124.577 208.756 124.467 208.668C124.379 208.58 124.335 208.404 124.335 208.14V205.863C124.335 205.401 124.566 205.17 125.028 205.17H126.348C126.59 205.17 126.711 205.049 126.711 204.807V201.672C126.711 201.21 126.953 200.979 127.437 200.979H130.209C130.671 200.979 130.902 201.21 130.902 201.672V204.807C130.902 205.049 131.034 205.17 131.298 205.17H133.872C134.334 205.17 134.565 205.401 134.565 205.863V208.14C134.565 208.382 134.51 208.558 134.4 208.668C134.312 208.756 134.136 208.8 133.872 208.8H131.298C131.034 208.8 130.902 208.921 130.902 209.163V216.456C130.902 217.138 131.056 217.633 131.364 217.941C131.672 218.227 132.178 218.37 132.882 218.37H134.202C134.664 218.37 134.895 218.601 134.895 219.063V221.34C134.895 221.582 134.84 221.758 134.73 221.868C134.642 221.956 134.466 222 134.202 222H132.189C130.451 222 129.098 221.538 128.13 220.614C127.184 219.69 126.711 218.37 126.711 216.654V209.163C126.711 208.921 126.59 208.8 126.348 208.8ZM143.526 222H142.734C140.996 222 139.654 221.538 138.708 220.614C137.762 219.69 137.289 218.359 137.289 216.621V210.549C137.289 208.811 137.762 207.48 138.708 206.556C139.654 205.632 140.996 205.17 142.734 205.17H150.357C150.841 205.17 151.083 205.401 151.083 205.863V221.307C151.083 221.769 150.841 222 150.357 222H147.585C147.123 222 146.892 221.769 146.892 221.307V220.218H146.76C146.518 220.812 146.089 221.263 145.473 221.571C144.857 221.857 144.208 222 143.526 222ZM146.892 215.862V209.163C146.892 208.921 146.76 208.8 146.496 208.8H143.394C142.69 208.8 142.195 208.954 141.909 209.262C141.623 209.548 141.48 210.043 141.48 210.747V216.423C141.48 217.127 141.623 217.633 141.909 217.941C142.195 218.227 142.69 218.37 143.394 218.37H144.615C146.133 218.37 146.892 217.534 146.892 215.862ZM165.424 219.063V221.34C165.424 221.582 165.369 221.758 165.259 221.868C165.171 221.956 164.995 222 164.731 222H159.814C158.076 222 156.734 221.538 155.788 220.614C154.842 219.69 154.369 218.359 154.369 216.621V210.549C154.369 208.811 154.842 207.48 155.788 206.556C156.734 205.632 158.076 205.17 159.814 205.17H164.731C165.193 205.17 165.424 205.401 165.424 205.863V208.14C165.424 208.382 165.369 208.558 165.259 208.668C165.171 208.756 164.995 208.8 164.731 208.8H160.474C159.792 208.8 159.297 208.954 158.989 209.262C158.703 209.548 158.56 210.043 158.56 210.747V216.423C158.56 217.127 158.703 217.633 158.989 217.941C159.297 218.227 159.792 218.37 160.474 218.37H164.731C165.193 218.37 165.424 218.601 165.424 219.063ZM177.903 205.17H181.104C181.368 205.17 181.544 205.247 181.632 205.401C181.72 205.555 181.687 205.753 181.533 205.995L177.144 213.222V213.354L181.731 221.175C181.863 221.395 181.874 221.593 181.764 221.769C181.654 221.923 181.456 222 181.17 222H178.332C177.958 222 177.683 221.956 177.507 221.868C177.353 221.78 177.188 221.593 177.012 221.307L172.821 213.948C172.623 213.596 172.623 213.233 172.821 212.859L176.781 205.83C177.023 205.39 177.397 205.17 177.903 205.17ZM171.765 222H168.96C168.498 222 168.267 221.769 168.267 221.307V199.494C168.267 199.032 168.498 198.801 168.96 198.801H171.765C172.227 198.801 172.458 199.032 172.458 199.494V221.307C172.458 221.769 172.227 222 171.765 222ZM190.201 222H183.931C183.491 222 183.271 221.769 183.271 221.307V219.195C183.271 218.953 183.315 218.788 183.403 218.7C183.491 218.59 183.667 218.535 183.931 218.535H189.442C190.52 218.535 191.059 218.205 191.059 217.545V217.38C191.059 216.852 190.608 216.346 189.706 215.862L186.439 214.047C185.317 213.475 184.492 212.859 183.964 212.199C183.436 211.539 183.172 210.692 183.172 209.658C183.172 208.118 183.579 206.985 184.393 206.259C185.207 205.533 186.483 205.17 188.221 205.17H193.732C194.172 205.17 194.392 205.401 194.392 205.863V208.008C194.392 208.25 194.348 208.426 194.26 208.536C194.172 208.624 193.996 208.668 193.732 208.668H189.145C188.067 208.668 187.528 208.943 187.528 209.493V209.658C187.528 210.142 188.001 210.637 188.947 211.143L192.28 213.123C193.424 213.739 194.227 214.377 194.689 215.037C195.151 215.675 195.382 216.522 195.382 217.578C195.382 220.526 193.655 222 190.201 222ZM208.235 200.781H211.007C211.469 200.781 211.7 201.001 211.7 201.441V216.621C211.7 218.337 211.227 219.668 210.281 220.614C209.335 221.538 208.004 222 206.288 222H202.988C201.25 222 199.908 221.538 198.962 220.614C198.016 219.69 197.543 218.359 197.543 216.621V213.519C197.543 213.057 197.774 212.826 198.236 212.826H201.041C201.503 212.826 201.734 213.057 201.734 213.519V216.423C201.734 217.127 201.877 217.633 202.163 217.941C202.471 218.227 202.966 218.37 203.648 218.37H205.595C206.299 218.37 206.794 218.227 207.08 217.941C207.366 217.633 207.509 217.127 207.509 216.423V201.474C207.509 201.012 207.751 200.781 208.235 200.781ZM215.313 216.588V215.928C215.313 215.466 215.544 215.235 216.006 215.235H218.811C219.273 215.235 219.504 215.466 219.504 215.928V216.192C219.504 217.028 219.669 217.6 219.999 217.908C220.329 218.216 220.934 218.37 221.814 218.37H223.365C224.223 218.37 224.817 218.205 225.147 217.875C225.499 217.545 225.675 216.929 225.675 216.027V215.631C225.675 214.993 225.411 214.509 224.883 214.179C224.377 213.827 223.739 213.618 222.969 213.552C222.199 213.486 221.363 213.365 220.461 213.189C219.581 212.991 218.756 212.749 217.986 212.463C217.216 212.155 216.567 211.572 216.039 210.714C215.533 209.834 215.28 208.712 215.28 207.348V206.193C215.28 204.477 215.764 203.146 216.732 202.2C217.7 201.254 219.042 200.781 220.758 200.781H224.058C225.796 200.781 227.149 201.254 228.117 202.2C229.085 203.146 229.569 204.477 229.569 206.193V206.82C229.569 207.282 229.338 207.513 228.876 207.513H226.071C225.609 207.513 225.378 207.282 225.378 206.82V206.622C225.378 205.764 225.213 205.181 224.883 204.873C224.553 204.565 223.948 204.411 223.068 204.411H221.781C220.879 204.411 220.263 204.587 219.933 204.939C219.625 205.269 219.471 205.929 219.471 206.919V207.546C219.471 208.58 220.373 209.174 222.177 209.328C224.047 209.482 225.708 209.856 227.16 210.45C227.93 210.78 228.568 211.374 229.074 212.232C229.602 213.068 229.866 214.146 229.866 215.466V216.588C229.866 218.304 229.382 219.635 228.414 220.581C227.446 221.527 226.104 222 224.388 222H220.791C219.075 222 217.733 221.527 216.765 220.581C215.797 219.635 215.313 218.304 215.313 216.588ZM105.828 264H103.056C102.572 264 102.33 263.769 102.33 263.307V246.774C102.33 246.532 102.209 246.411 101.967 246.411H98.2052C97.7432 246.411 97.5122 246.18 97.5122 245.718V243.474C97.5122 243.012 97.7432 242.781 98.2052 242.781H110.679C111.141 242.781 111.372 243.012 111.372 243.474V245.718C111.372 246.18 111.141 246.411 110.679 246.411H106.917C106.653 246.411 106.521 246.532 106.521 246.774V263.307C106.521 263.769 106.29 264 105.828 264ZM121.614 264H118.677C116.939 264 115.597 263.538 114.651 262.614C113.705 261.69 113.232 260.359 113.232 258.621V252.549C113.232 250.811 113.705 249.48 114.651 248.556C115.597 247.632 116.939 247.17 118.677 247.17H121.614C123.33 247.17 124.661 247.643 125.607 248.589C126.575 249.513 127.059 250.833 127.059 252.549V258.621C127.059 260.337 126.575 261.668 125.607 262.614C124.661 263.538 123.33 264 121.614 264ZM119.304 260.403H120.987C121.691 260.403 122.186 260.26 122.472 259.974C122.78 259.688 122.934 259.193 122.934 258.489V252.681C122.934 251.977 122.78 251.482 122.472 251.196C122.186 250.91 121.691 250.767 120.987 250.767H119.304C118.6 250.767 118.105 250.91 117.819 251.196C117.533 251.482 117.39 251.977 117.39 252.681V258.489C117.39 259.193 117.533 259.688 117.819 259.974C118.105 260.26 118.6 260.403 119.304 260.403ZM138.404 264H135.467C133.729 264 132.387 263.538 131.441 262.614C130.495 261.69 130.022 260.359 130.022 258.621V252.549C130.022 250.811 130.495 249.48 131.441 248.556C132.387 247.632 133.729 247.17 135.467 247.17H138.404C140.12 247.17 141.451 247.643 142.397 248.589C143.365 249.513 143.849 250.833 143.849 252.549V258.621C143.849 260.337 143.365 261.668 142.397 262.614C141.451 263.538 140.12 264 138.404 264ZM136.094 260.403H137.777C138.481 260.403 138.976 260.26 139.262 259.974C139.57 259.688 139.724 259.193 139.724 258.489V252.681C139.724 251.977 139.57 251.482 139.262 251.196C138.976 250.91 138.481 250.767 137.777 250.767H136.094C135.39 250.767 134.895 250.91 134.609 251.196C134.323 251.482 134.18 251.977 134.18 252.681V258.489C134.18 259.193 134.323 259.688 134.609 259.974C134.895 260.26 135.39 260.403 136.094 260.403ZM150.805 264H148C147.538 264 147.307 263.769 147.307 263.307V241.494C147.307 241.032 147.538 240.801 148 240.801H150.805C151.267 240.801 151.498 241.032 151.498 241.494V263.307C151.498 263.769 151.267 264 150.805 264ZM159.849 260.37H163.215C163.919 260.37 164.414 260.227 164.7 259.941C165.008 259.633 165.162 259.127 165.162 258.423V252.681C165.162 251.977 165.008 251.482 164.7 251.196C164.414 250.888 163.919 250.734 163.215 250.734H161.763C160.245 250.734 159.486 251.57 159.486 253.242V260.007C159.486 260.249 159.607 260.37 159.849 260.37ZM155.295 263.307V241.494C155.295 241.032 155.526 240.801 155.988 240.801H158.793C159.255 240.801 159.486 241.032 159.486 241.494V248.919H159.618C159.86 248.325 160.289 247.874 160.905 247.566C161.521 247.258 162.17 247.104 162.852 247.104H163.908C165.646 247.104 166.988 247.566 167.934 248.49C168.88 249.414 169.353 250.745 169.353 252.483V258.621C169.353 260.359 168.88 261.69 167.934 262.614C166.988 263.538 165.646 264 163.908 264H155.988C155.526 264 155.295 263.769 155.295 263.307ZM180.718 264H177.781C176.043 264 174.701 263.538 173.755 262.614C172.809 261.69 172.336 260.359 172.336 258.621V252.549C172.336 250.811 172.809 249.48 173.755 248.556C174.701 247.632 176.043 247.17 177.781 247.17H180.718C182.434 247.17 183.765 247.643 184.711 248.589C185.679 249.513 186.163 250.833 186.163 252.549V258.621C186.163 260.337 185.679 261.668 184.711 262.614C183.765 263.538 182.434 264 180.718 264ZM178.408 260.403H180.091C180.795 260.403 181.29 260.26 181.576 259.974C181.884 259.688 182.038 259.193 182.038 258.489V252.681C182.038 251.977 181.884 251.482 181.576 251.196C181.29 250.91 180.795 250.767 180.091 250.767H178.408C177.704 250.767 177.209 250.91 176.923 251.196C176.637 251.482 176.494 251.977 176.494 252.681V258.489C176.494 259.193 176.637 259.688 176.923 259.974C177.209 260.26 177.704 260.403 178.408 260.403ZM192.162 264H188.829C188.257 264 188.103 263.769 188.367 263.307L192.525 255.42L188.367 247.863C188.147 247.401 188.279 247.17 188.763 247.17H192.129C192.657 247.17 192.998 247.401 193.152 247.863L195.231 252.879H195.363L197.178 247.863C197.332 247.401 197.673 247.17 198.201 247.17H201.501C202.073 247.17 202.216 247.401 201.93 247.863L197.97 255.42L202.227 263.307C202.337 263.505 202.348 263.67 202.26 263.802C202.194 263.934 202.051 264 201.831 264H198.432C197.97 264 197.64 263.769 197.442 263.307L195.363 258.258H195.231L193.152 263.307C192.998 263.769 192.668 264 192.162 264Z" fill="#007AF6"/>
<path d="M212.887 113.808H164.713L159.642 118.911H134.287L129.216 113.808H81.0425V65.3323H129.216L134.287 70.435H159.642L164.713 65.3323H212.887V113.808Z" fill="#0045C7"/>
<path d="M81.0425 70.4349H126.681L131.752 75.5376H167.248L172.319 70.4349H212.887V62.7808H81.0425V70.4349Z" fill="#002E6E"/>
<path d="M116.539 24.5103H177.39V34.7157H116.539V24.5103Z" fill="#0045C7"/>
<path d="M119.074 44.9212H108.933V27.6995C108.933 26.8536 109.267 26.0424 109.861 25.4444C110.455 24.8463 111.261 24.5103 112.102 24.5103H119.074V44.9212Z" fill="#002E6E"/>
<path d="M184.996 44.9212H174.855V24.5103H181.618C182.452 24.5102 183.252 24.8409 183.846 25.4306C184.439 26.0203 184.777 26.8215 184.788 27.6606L184.996 44.9212Z" fill="#002E6E"/>
<path d="M215.422 65.3321H164.713L159.642 70.4348H134.287L129.216 65.3321H78.5071V44.9211H215.422V65.3321Z" fill="#007AF6"/>
<path d="M111.468 55.9973C114.21 56.9724 116.617 58.7179 118.403 61.0271C120.19 63.3362 121.281 66.1122 121.548 69.0263C121.815 71.9404 121.246 74.8703 119.909 77.469C118.572 80.0678 116.522 82.2264 114.004 83.6892V113.808H98.7908V83.6892C96.272 82.2264 94.2227 80.0678 92.8856 77.469C91.5485 74.8703 90.9797 71.9404 91.2465 69.0263C91.5133 66.1122 92.6046 63.3362 94.391 61.0271C96.1775 58.7179 98.5843 56.9724 101.326 55.9973V67.8835C101.326 69.2368 101.86 70.5347 102.811 71.4917C103.762 72.4486 105.052 72.9862 106.397 72.9862C107.742 72.9862 109.032 72.4486 109.983 71.4917C110.934 70.5347 111.468 69.2368 111.468 67.8835V55.9973Z" fill="#C1E3F7"/>
<path d="M106.397 116.36C105.725 116.36 105.08 116.091 104.604 115.612C104.129 115.134 103.862 114.485 103.862 113.808V88.2945C103.862 87.6179 104.129 86.9689 104.604 86.4904C105.08 86.012 105.725 85.7432 106.397 85.7432C107.07 85.7432 107.715 86.012 108.19 86.4904C108.665 86.9689 108.933 87.6179 108.933 88.2945V113.808C108.933 114.485 108.665 115.134 108.19 115.612C107.715 116.091 107.07 116.36 106.397 116.36Z" fill="#AFCEE0"/>
<path d="M154.571 118.911H139.358V108.705L136.823 103.603V95.9485H157.106V103.603L154.571 108.705V118.911Z" fill="#007AF6"/>
<path d="M152.035 95.9486H141.894V62.7808L146.965 55.1267L152.035 62.7808V95.9486Z" fill="#AFCEE0"/>
<path d="M200.209 55.1267H207.816C211.178 55.1267 214.402 56.4707 216.78 58.8631C219.157 61.2555 220.493 64.5002 220.493 67.8836H200.209V55.1267Z" fill="#C1E3F7"/>
<path d="M197.674 111.257H182.461V101.051C184.128 97.6956 184.996 93.9953 184.996 90.2434V80.6404H195.138V90.2434C195.138 93.9953 196.006 97.6956 197.674 101.051V111.257Z" fill="#C36F53"/>
<path d="M177.39 55.1267V72.9863L180.186 73.9239C181.587 74.3939 182.805 75.2954 183.668 76.5008C184.532 77.7063 184.996 79.1545 184.996 80.6404H195.138V79.9133C195.138 78.5985 195.502 77.3096 196.189 76.1912C196.876 75.0727 197.859 74.1688 199.027 73.5808L200.209 72.9863V55.1267H177.39Z" fill="#AFCEE0"/>
<path d="M182.461 103.603H197.674V113.808H182.461V103.603Z" fill="#F48B68"/>
<path d="M146.965 106.154H136.823C136.15 106.154 135.505 105.885 135.03 105.407C134.554 104.928 134.287 104.279 134.287 103.603C134.287 102.926 134.554 102.277 135.03 101.799C135.505 101.32 136.15 101.051 136.823 101.051H146.965C147.637 101.051 148.282 101.32 148.757 101.799C149.233 102.277 149.5 102.926 149.5 103.603C149.5 104.279 149.233 104.928 148.757 105.407C148.282 105.885 147.637 106.154 146.965 106.154Z" fill="#3191FF"/>
<path d="M88.6489 44.9211H205.28V55.1266H88.6489V44.9211Z" fill="#3A97FF"/>
<path d="M215.422 172.49H78.5071V113.808H129.216L134.287 118.911H159.642L164.713 113.808H215.422V172.49Z" fill="#007AF6"/>
<path d="M205.28 162.284H88.6489V124.014H124.145L129.216 129.116H162.177L167.248 124.014H205.28V162.284Z" fill="#3A97FF"/>
<path d="M146.965 146.976C149.765 146.976 152.035 144.691 152.035 141.873C152.035 139.055 149.765 136.771 146.965 136.771C144.164 136.771 141.894 139.055 141.894 141.873C141.894 144.691 144.164 146.976 146.965 146.976Z" fill="#0045C7"/>
<path d="M144.429 141.873H149.5V152.079H144.429V141.873Z" fill="#0045C7"/>
<path d="M174.855 149.527H187.532V154.63H174.855V149.527Z" fill="#5FB0FF"/>
<path d="M192.603 149.527H197.674V154.63H192.603V149.527Z" fill="#5FB0FF"/>
<path d="M164.713 52.5754H177.39V75.5378H164.713V52.5754Z" fill="#C1E3F7"/>
<path d="M139.358 113.808H154.571V118.911H139.358V113.808Z" fill="#0072E6"/>
<path d="M141.894 62.7808H152.035L146.965 55.1267L141.894 62.7808Z" fill="#C6E9FD"/>
<path d="M164.713 52.5754H169.784V75.5378H164.713V52.5754Z" fill="#C6E9FD"/>
</svg>
